<svg id="Layer_1" data-name="Layer 1" xmlns="http://www.w3.org/2000/svg" viewBox="0 0 96.07 135"><defs><style>.cls-1{fill:#aaca38;}.cls-2{fill:#82702c;}</style></defs><title>logosvg</title><path class="cls-1" d="M111.62,28.4A47.86,47.86,0,1,0,24.17,67.34a35.83,35.83,0,0,1-1.24,31.71l-.34.61a23.93,23.93,0,1,0,44.28,17.12c0-.22.11-.43.15-.65A35.87,35.87,0,0,1,87.36,91.59,47.87,47.87,0,0,0,111.62,28.4Zm-34,41.34a23.66,23.66,0,0,1-6.85,1.89,23.92,23.92,0,1,1,6.85-1.89Z" transform="translate(-19.69 0)"/><path class="cls-2" d="M77.62,69.74a23.66,23.66,0,0,1-6.85,1.89,23.92,23.92,0,1,1,6.85-1.89Z" transform="translate(-19.69 0)"/></svg>