<svg id="Layer_1" data-name="Layer 1" xmlns="http://www.w3.org/2000/svg" viewBox="0 0 35.58 50"><defs><style>.cls-1{fill:#aaca38;}.cls-2{fill:#82702c;}</style></defs><title>logosvg</title><path class="cls-1" d="M41.24,10.52A17.73,17.73,0,0,0,8.85,24.94a13.24,13.24,0,0,1-.46,11.74l-.12.23a8.86,8.86,0,1,0,16.4,6.34c0-.08,0-.16,0-.24a13.3,13.3,0,0,1,7.53-9.09,17.72,17.72,0,0,0,9-23.4ZM28.65,25.83a8.67,8.67,0,0,1-2.54.7,8.85,8.85,0,1,1,2.54-.7Z" transform="translate(-7.19)"/><path class="cls-2" d="M28.65,25.83a8.67,8.67,0,0,1-2.54.7,8.85,8.85,0,1,1,2.54-.7Z" transform="translate(-7.19)"/></svg>